<svg version="1.2" xmlns="http://www.w3.org/2000/svg" viewBox="0 0 800 800" width="800" height="800">
	<style>
		.s0 { fill: #00eaff } 
		.s1 { fill: #49e1f8 } 
	</style>
	<g>
		<path class="s0" d="m256.25 746.25l87.5-90c-31.25-6.25-60-18.75-86.25-36.25z"/>
		<path class="s0" d="m543.75 53.75l-87.5 90c31.25 6.25 60 18.75 86.25 36.25z"/>
		<path class="s0" d="m53.75 543.75l126.25-1.25c-17.5-26.25-30-55-36.25-86.25z"/>
		<path class="s0" d="m746.25 256.25l-126.25 1.25c16.25 26.25 28.75 55 36.25 86.25z"/>
		<path class="s0" d="m53.75 256.25l90 87.5c6.25-31.25 18.75-60 36.25-86.25z"/>
		<path class="s0" d="m746.25 543.75l-90-87.5c-6.25 31.25-18.75 60-36.25 86.25z"/>
		<path class="s0" d="m256.25 53.75l1.25 126.25c26.25-16.25 55-28.75 86.25-36.25z"/>
		<path class="s0" d="m543.75 746.25l-1.25-126.25c-26.25 17.5-55 30-86.25 36.25z"/>
	</g>
	<g>
		<path class="s1" d="m185 550l-50 116.25 116.25-50c-26.25-18.75-48.75-41.25-66.25-66.25z"/>
		<path class="s1" d="m615 250l50-116.25-115 50c25 18.75 47.5 41.25 65 66.25z"/>
		<path class="s1" d="m142.5 353.75l-117.5 46.25 117.5 46.25c-3.75-15-5-30-5-46.25 0-16.25 1.25-31.25 5-46.25z"/>
		<path class="s1" d="m657.5 446.25l117.5-46.25-117.5-46.25c2.5 15 5 31.25 5 46.25 0 16.25-1.25 31.25-5 46.25z"/>
		<path class="s1" d="m250 185l-116.25-50 50 116.25c18.75-26.25 41.25-48.75 66.25-66.25z"/>
		<path class="s1" d="m550 615l116.25 50-50-116.25c-18.75 26.25-41.25 48.75-66.25 66.25z"/>
		<path class="s1" d="m446.25 142.5l-46.25-117.5-46.25 117.5c15-2.5 31.25-5 46.25-5 15 0 31.25 1.25 46.25 5z"/>
		<path class="s1" d="m353.75 657.5l46.25 117.5 46.25-117.5c-15 3.75-30 5-46.25 5-16.25 0-31.25-1.25-46.25-5z"/>
		<path class="s1" d="m400 599.05c-110.07 0-199.05-88.98-199.05-199.05 0-110.07 88.98-199.05 199.05-199.05 110.07 0 199.05 88.98 199.05 199.05 0 110.07-88.98 199.05-199.05 199.05z"/>
	</g>
</svg>